<svg width="394" height="51" viewBox="0 0 394 51" fill="none" xmlns="http://www.w3.org/2000/svg">
<path d="M2.2017 10.9091H10.9091L18.2955 28.9205H18.6364L26.0227 10.9091H34.7301V40H27.8835V22.1307H27.642L20.6534 39.8153H16.2784L9.28977 22.0312H9.0483V40H2.2017V10.9091ZM44.2084 40H36.6516L46.4669 10.9091H55.8277L65.643 40H58.0862L51.2538 18.2386H51.0266L44.2084 40ZM43.1999 28.5511H58.9953V33.892H43.1999V28.5511ZM92.3337 10.9091V40H86.3678L74.791 23.2102H74.6064V40H67.5751V10.9091H73.6263L85.0751 27.6705H85.3166V10.9091H92.3337ZM111.279 19.6307C111.185 18.589 110.763 17.7794 110.015 17.2017C109.276 16.6146 108.221 16.321 106.847 16.321C105.938 16.321 105.181 16.4394 104.575 16.6761C103.969 16.9129 103.514 17.2396 103.211 17.6562C102.908 18.0634 102.752 18.5322 102.742 19.0625C102.723 19.4981 102.809 19.8816 102.998 20.2131C103.197 20.5445 103.481 20.8381 103.85 21.0938C104.229 21.34 104.684 21.5578 105.214 21.7472C105.744 21.9366 106.341 22.1023 107.004 22.2443L109.504 22.8125C110.943 23.125 112.212 23.5417 113.311 24.0625C114.418 24.5833 115.346 25.2036 116.095 25.9233C116.852 26.643 117.425 27.4716 117.813 28.4091C118.202 29.3466 118.4 30.3977 118.41 31.5625C118.4 33.3996 117.936 34.9763 117.018 36.2926C116.099 37.6089 114.778 38.6174 113.055 39.3182C111.341 40.0189 109.272 40.3693 106.847 40.3693C104.414 40.3693 102.293 40.0047 100.484 39.2756C98.6751 38.5464 97.2688 37.4384 96.2651 35.9517C95.2613 34.465 94.7452 32.5852 94.7168 30.3125H101.45C101.507 31.25 101.757 32.0312 102.203 32.6562C102.648 33.2812 103.258 33.7547 104.035 34.0767C104.821 34.3987 105.73 34.5597 106.762 34.5597C107.709 34.5597 108.514 34.4318 109.177 34.1761C109.849 33.9205 110.365 33.5653 110.725 33.1108C111.085 32.6562 111.27 32.1354 111.279 31.5483C111.27 30.9991 111.099 30.5303 110.768 30.142C110.436 29.7443 109.925 29.4034 109.234 29.1193C108.552 28.8258 107.681 28.5559 106.62 28.3097L103.58 27.5994C101.061 27.0218 99.0776 26.089 97.6287 24.8011C96.1798 23.5038 95.4601 21.7519 95.4696 19.5455C95.4601 17.7462 95.9431 16.1695 96.9185 14.8153C97.8938 13.4612 99.2433 12.4053 100.967 11.6477C102.69 10.8902 104.655 10.5114 106.862 10.5114C109.115 10.5114 111.071 10.8949 112.728 11.6619C114.395 12.4195 115.687 13.4848 116.606 14.858C117.525 16.2311 117.993 17.822 118.012 19.6307H111.279ZM120.761 40V10.9091H127.792V22.5852H139.255V10.9091H146.272V40H139.255V28.3097H127.792V40H120.761ZM156.514 10.9091V40H149.483V10.9091H156.514ZM159.728 40V10.9091H166.76V23.2102H167.143L176.76 10.9091H185.041L174.728 23.892L185.225 40H176.816L169.572 28.5653L166.76 32.1165V40H159.728ZM192.907 40H185.35L195.165 10.9091H204.526L214.341 40H206.785L199.952 18.2386H199.725L192.907 40ZM191.898 28.5511H207.694V33.892H191.898V28.5511ZM233.475 40V45.0852H214.058V40H233.475ZM259.253 21.4489H252.151C252.056 20.7197 251.862 20.0616 251.569 19.4744C251.275 18.8873 250.887 18.3854 250.404 17.9688C249.921 17.5521 249.348 17.2348 248.685 17.017C248.032 16.7898 247.307 16.6761 246.512 16.6761C245.101 16.6761 243.884 17.0218 242.861 17.7131C241.848 18.4044 241.067 19.4034 240.517 20.7102C239.978 22.017 239.708 23.5985 239.708 25.4545C239.708 27.3864 239.982 29.0057 240.532 30.3125C241.09 31.6098 241.872 32.59 242.875 33.2528C243.889 33.9062 245.087 34.233 246.469 34.233C247.246 34.233 247.951 34.1335 248.586 33.9347C249.23 33.7358 249.793 33.447 250.276 33.0682C250.768 32.6799 251.171 32.2112 251.483 31.6619C251.805 31.1032 252.028 30.4735 252.151 29.7727L259.253 29.8153C259.13 31.1032 258.756 32.3722 258.131 33.6222C257.516 34.8722 256.668 36.0133 255.588 37.0455C254.509 38.0682 253.193 38.8826 251.64 39.4886C250.096 40.0947 248.325 40.3977 246.327 40.3977C243.695 40.3977 241.337 39.8201 239.253 38.6648C237.179 37.5 235.541 35.8049 234.338 33.5795C233.136 31.3542 232.535 28.6458 232.535 25.4545C232.535 22.2538 233.145 19.5407 234.367 17.3153C235.588 15.09 237.241 13.3996 239.324 12.2443C241.408 11.089 243.742 10.5114 246.327 10.5114C248.088 10.5114 249.717 10.7576 251.213 11.25C252.71 11.733 254.026 12.4432 255.162 13.3807C256.299 14.3087 257.222 15.4498 257.932 16.804C258.642 18.1581 259.083 19.7064 259.253 21.4489ZM289.534 25.4545C289.534 28.6553 288.919 31.3684 287.688 33.5938C286.456 35.8191 284.79 37.5095 282.688 38.6648C280.595 39.8201 278.246 40.3977 275.642 40.3977C273.028 40.3977 270.675 39.8153 268.582 38.6506C266.49 37.4858 264.828 35.7955 263.597 33.5795C262.375 31.3542 261.764 28.6458 261.764 25.4545C261.764 22.2538 262.375 19.5407 263.597 17.3153C264.828 15.09 266.49 13.3996 268.582 12.2443C270.675 11.089 273.028 10.5114 275.642 10.5114C278.246 10.5114 280.595 11.089 282.688 12.2443C284.79 13.3996 286.456 15.09 287.688 17.3153C288.919 19.5407 289.534 22.2538 289.534 25.4545ZM282.347 25.4545C282.347 23.5606 282.077 21.9602 281.537 20.6534C281.007 19.3466 280.24 18.357 279.236 17.6847C278.241 17.0123 277.044 16.6761 275.642 16.6761C274.25 16.6761 273.052 17.0123 272.048 17.6847C271.045 18.357 270.273 19.3466 269.733 20.6534C269.203 21.9602 268.938 23.5606 268.938 25.4545C268.938 27.3485 269.203 28.9489 269.733 30.2557C270.273 31.5625 271.045 32.5521 272.048 33.2244C273.052 33.8968 274.25 34.233 275.642 34.233C277.044 34.233 278.241 33.8968 279.236 33.2244C280.24 32.5521 281.007 31.5625 281.537 30.2557C282.077 28.9489 282.347 27.3485 282.347 25.4545ZM303.192 40H292.439V10.9091H303.178C306.142 10.9091 308.694 11.4915 310.834 12.6562C312.984 13.8116 314.641 15.4782 315.806 17.6562C316.97 19.8248 317.553 22.4195 317.553 25.4403C317.553 28.4706 316.97 31.0748 315.806 33.2528C314.65 35.4309 312.998 37.1023 310.848 38.267C308.699 39.4223 306.147 40 303.192 40ZM299.47 34.0057H302.922C304.551 34.0057 305.929 33.7311 307.056 33.1818C308.192 32.6231 309.049 31.7188 309.627 30.4688C310.214 29.2093 310.507 27.5331 310.507 25.4403C310.507 23.3475 310.214 21.6809 309.627 20.4403C309.04 19.1903 308.173 18.2907 307.027 17.7415C305.891 17.1828 304.489 16.9034 302.823 16.9034H299.47V34.0057ZM320.458 40V10.9091H340.742V16.6193H327.489V22.5852H339.705V28.3097H327.489V34.2898H340.742V40H320.458ZM343.945 40V10.9091H355.962C358.141 10.9091 360.02 11.3021 361.602 12.0881C363.193 12.8646 364.419 13.982 365.281 15.4403C366.142 16.8892 366.573 18.608 366.573 20.5966C366.573 22.6136 366.133 24.3277 365.252 25.7386C364.372 27.1402 363.122 28.2102 361.502 28.9489C359.883 29.678 357.965 30.0426 355.749 30.0426H348.15V24.5028H354.443C355.503 24.5028 356.389 24.3655 357.099 24.0909C357.819 23.8068 358.363 23.3807 358.732 22.8125C359.102 22.2348 359.286 21.4962 359.286 20.5966C359.286 19.697 359.102 18.9536 358.732 18.3665C358.363 17.7699 357.819 17.3248 357.099 17.0312C356.379 16.7282 355.494 16.5767 354.443 16.5767H350.977V40H343.945ZM360.323 26.7045L367.568 40H359.897L352.795 26.7045H360.323Z" fill="black"/>
<path d="M18.5 28L12 12L27 11.5L18.5 28Z" fill="#FFAA01" stroke="#FFAA01"/>
<path d="M368 40L362 29.5L366 26L368 40Z" fill="#FFAA01" stroke="#FFAA01"/>
<circle cx="153.5" cy="4.5" r="4.5" fill="#FFAA01"/>
</svg>
